<svg width="158" height="24" viewBox="0 0 158 24" fill="none" xmlns="http://www.w3.org/2000/svg">
<path d="M0.232047 0.0436381C4.98946 0.0543594 12.3106 -0.509181 16.2855 2.12357C21.5658 5.62106 21.6388 16.0169 17.7421 20.5542C16.0977 22.4687 13.8553 23.2703 11.4192 23.6846C10.5778 23.8231 9.72861 23.9111 8.8766 23.9479C6.28255 24.0607 3.6483 23.8768 1.05056 23.993C0.729087 24.0074 0.325195 24.0175 0.0633607 23.831L0.0439236 23.5621C0.0873114 21.6298 -0.0716634 19.2081 0.473113 17.3974C1.20451 14.9662 2.98709 13.3173 5.16988 12.1488C8.22863 13.5069 15.1856 17.2253 18.3625 15.2173C20.3507 13.9605 19.747 9.63169 18.9769 8.84116C16.4688 6.26553 7.56341 9.70638 5.15162 11.7608C1.26129 9.73234 -0.305354 6.06097 0.0486168 1.93277C0.0990404 1.3441 -0.0431862 0.71171 0.0844643 0.119525L0.232047 0.0436381Z" fill="#FEFEFE"/>
<path d="M32.9915 21.2546H29.9243L36.9578 2.34881H40.1043L47.1907 21.2546H44.0177L42.4576 16.7066H34.5516L32.9915 21.2546ZM38.4914 5.04585L35.4242 14.2475H41.638L38.5443 5.04585H38.4914Z" fill="white"/>
<path d="M57.8355 9.40872V2.34881H60.4268V21.2546H57.8355V19.6681H57.7826C57.0423 20.62 55.7466 21.6248 53.6313 21.6248C50.1939 21.6248 47.5762 18.9542 47.5762 14.512C47.5762 10.0698 50.1939 7.37272 53.6313 7.37272C55.7466 7.37272 57.0423 8.35106 57.7826 9.40872H57.8355ZM54.0544 19.483C56.3812 19.483 57.8091 17.5527 57.8091 14.512C57.8091 11.4447 56.3812 9.54093 54.0544 9.54093C51.516 9.54093 50.2732 11.8678 50.2732 14.512C50.2732 17.1561 51.516 19.483 54.0544 19.483Z" fill="white"/>
<path d="M78.0187 7.37272C80.7422 7.37272 82.1172 9.0121 82.1172 11.8942V21.2546H79.5259V12.6082C79.5259 10.8101 79.1557 9.59381 77.1726 9.59381C75.2424 9.59381 74.0261 10.9423 74.0261 12.9783V21.2546H71.4348V12.6082C71.4348 10.8101 71.0646 9.59381 69.0815 9.59381C67.1512 9.59381 65.9349 10.9423 65.9349 12.9783V21.2546H63.3436V7.76934H65.9349V9.46161H65.9878C66.7017 8.43038 67.9445 7.37272 69.9805 7.37272C71.8578 7.37272 73.0213 8.21885 73.5501 9.72602H73.603C74.5813 8.43038 75.9563 7.37272 78.0187 7.37272Z" fill="white"/>
<path d="M90.9853 21.6512C86.781 21.6512 84.2426 18.7426 84.2426 14.512C84.2426 10.3077 86.781 7.34628 91.0117 7.34628C95.1895 7.34628 97.7279 10.2813 97.7279 14.4855C97.7279 18.7162 95.1895 21.6512 90.9853 21.6512ZM91.0117 19.5094C93.7616 19.5094 95.0308 17.3148 95.0308 14.512C95.0308 11.6827 93.7616 9.51449 91.0117 9.51449C88.2089 9.51449 86.9397 11.6827 86.9397 14.512C86.9397 17.3148 88.2089 19.5094 91.0117 19.5094Z" fill="white"/>
<path d="M107.02 7.37272C109.505 7.37272 111.515 8.80057 111.515 11.8942V21.2546H108.923V12.6082C108.923 10.8101 108.13 9.59381 106.173 9.59381C103.952 9.59381 102.525 10.9423 102.525 12.9783V21.2546H99.9333V7.76934H102.525V9.46161H102.577C103.291 8.43038 104.693 7.37272 107.02 7.37272Z" fill="white"/>
<path d="M123.888 9.40872V2.34881H126.479V21.2546H123.888V19.6681H123.835C123.095 20.62 121.799 21.6248 119.684 21.6248C116.246 21.6248 113.629 18.9542 113.629 14.512C113.629 10.0698 116.246 7.37272 119.684 7.37272C121.799 7.37272 123.095 8.35106 123.835 9.40872H123.888ZM120.107 19.483C122.434 19.483 123.861 17.5527 123.861 14.512C123.861 11.4447 122.434 9.54093 120.107 9.54093C117.568 9.54093 116.326 11.8678 116.326 14.512C116.326 17.1561 117.568 19.483 120.107 19.483Z" fill="white"/>
<path d="M135.425 21.6512C131.221 21.6512 128.682 18.7426 128.682 14.512C128.682 10.3077 131.221 7.34628 135.451 7.34628C139.629 7.34628 142.167 10.2813 142.167 14.4855C142.167 18.7162 139.629 21.6512 135.425 21.6512ZM135.451 19.5094C138.201 19.5094 139.47 17.3148 139.47 14.512C139.47 11.6827 138.201 9.51449 135.451 9.51449C132.648 9.51449 131.379 11.6827 131.379 14.512C131.379 17.3148 132.648 19.5094 135.451 19.5094Z" fill="white"/>
<path d="M152.949 10.0795C150.179 10.0795 147.992 7.93446 147.992 5.03973C147.992 2.14501 150.179 0 152.949 0C155.718 0 157.905 2.14501 157.905 5.03973C157.905 7.93446 155.718 10.0795 152.949 10.0795ZM152.949 9.22563C155.239 9.22563 156.926 7.4763 156.926 5.03973C156.926 2.60317 155.239 0.853838 152.949 0.853838C150.658 0.853838 148.971 2.60317 148.971 5.03973C148.971 7.4763 150.658 9.22563 152.949 9.22563ZM152.241 7.78868H150.866V2.24914H153.178C154.469 2.24914 155.156 2.83225 155.156 3.87351C155.156 4.64405 154.698 5.10221 153.99 5.26881V5.28964C155.406 5.51872 154.948 7.62208 155.281 7.7262V7.78868H153.865C153.594 7.53878 154.052 5.8311 152.761 5.8311H152.241V7.78868ZM152.241 4.72735H152.803C153.365 4.72735 153.844 4.6024 153.844 3.99847C153.844 3.39453 153.365 3.2904 152.803 3.2904H152.241V4.72735Z" fill="white"/>
</svg>
