<svg width="782" height="135" viewBox="0 0 782 135" fill="none" xmlns="http://www.w3.org/2000/svg">
<path d="M21.3695 132.226H0L49.0024 0H70.9245L120.295 132.226H98.189L87.32 100.418H32.2384L21.3695 132.226ZM59.6871 18.863L38.3176 83.2192H81.6092L60.0555 18.863H59.6871Z" fill="black"/>
<path d="M194.458 49.3767V0H212.512V132.226H194.458V121.13H194.09C188.931 127.788 179.905 134.815 165.167 134.815C141.219 134.815 122.981 116.137 122.981 85.0685C122.981 54 141.219 35.137 165.167 35.137C179.905 35.137 188.931 41.9795 194.09 49.3767H194.458ZM168.115 119.836C184.326 119.836 194.274 106.336 194.274 85.0685C194.274 63.6164 184.326 50.3014 168.115 50.3014C150.43 50.3014 141.771 66.5753 141.771 85.0685C141.771 103.562 150.43 119.836 168.115 119.836Z" fill="black"/>
<path d="M335.075 35.137C354.05 35.137 363.629 46.6027 363.629 66.7603V132.226H345.576V71.7534C345.576 59.1781 342.996 50.6712 329.18 50.6712C315.732 50.6712 307.258 60.1027 307.258 74.3425V132.226H289.204V71.7534C289.204 59.1781 286.625 50.6712 272.809 50.6712C259.361 50.6712 250.887 60.1027 250.887 74.3425V132.226H232.833V37.911H250.887V49.7466H251.255C256.229 42.5342 264.887 35.137 279.072 35.137C292.152 35.137 300.258 41.0548 303.942 51.5959H304.31C311.126 42.5342 320.706 35.137 335.075 35.137Z" fill="black"/>
<path d="M425.413 135C396.122 135 378.437 114.658 378.437 85.0685C378.437 55.6644 396.122 34.9521 425.597 34.9521C454.704 34.9521 472.389 55.4795 472.389 84.8836C472.389 114.473 454.704 135 425.413 135ZM425.597 120.021C444.756 120.021 453.599 104.671 453.599 85.0685C453.599 65.2808 444.756 50.1164 425.597 50.1164C406.07 50.1164 397.228 65.2808 397.228 85.0685C397.228 104.671 406.07 120.021 425.597 120.021Z" fill="black"/>
<path d="M537.125 35.137C554.442 35.137 568.442 45.1233 568.442 66.7603V132.226H550.389V71.7534C550.389 59.1781 544.862 50.6712 531.23 50.6712C515.755 50.6712 505.808 60.1027 505.808 74.3425V132.226H487.754V37.911H505.808V49.7466H506.176C511.15 42.5342 520.914 35.137 537.125 35.137Z" fill="black"/>
<path d="M654.647 49.3767V0H672.7V132.226H654.647V121.13H654.278C649.12 127.788 640.093 134.815 625.356 134.815C601.407 134.815 583.17 116.137 583.17 85.0685C583.17 54 601.407 35.137 625.356 35.137C640.093 35.137 649.12 41.9795 654.278 49.3767H654.647ZM628.303 119.836C644.515 119.836 654.463 106.336 654.463 85.0685C654.463 63.6164 644.515 50.3014 628.303 50.3014C610.618 50.3014 601.96 66.5753 601.96 85.0685C601.96 103.562 610.618 119.836 628.303 119.836Z" fill="black"/>
<path d="M735.024 135C705.733 135 688.048 114.658 688.048 85.0685C688.048 55.6644 705.733 34.9521 735.208 34.9521C764.315 34.9521 782 55.4795 782 84.8836C782 114.473 764.315 135 735.024 135ZM735.208 120.021C754.367 120.021 763.21 104.671 763.21 85.0685C763.21 65.2808 754.367 50.1164 735.208 50.1164C715.681 50.1164 706.839 65.2808 706.839 85.0685C706.839 104.671 715.681 120.021 735.208 120.021Z" fill="black"/>
</svg>
