<svg width="62" height="38" viewBox="0 0 62 38" fill="none" xmlns="http://www.w3.org/2000/svg">
<path d="M39.3661 4.06445H22.5879V33.9357H39.3661V4.06445Z" fill="#FF5A00"/>
<path d="M23.703 19C23.703 12.9311 26.5821 7.54466 31 4.0644C27.7486 1.53107 23.6471 0 19.1733 0C8.57526 0 0 8.49773 0 19C0 29.5023 8.57526 38 19.1733 38C23.6471 38 27.7486 36.4689 31 33.9356C26.5759 30.5045 23.703 25.0689 23.703 19Z" fill="#EB001B"/>
<path d="M62 19C62 29.5023 53.4247 38 42.8267 38C38.3529 38 34.2514 36.4689 31 33.9356C35.4738 30.4492 38.297 25.0689 38.297 19C38.297 12.9311 35.4179 7.54466 31 4.0644C34.2452 1.53107 38.3467 0 42.8205 0C53.4247 0 62 8.55307 62 19Z" fill="#F79E1B"/>
</svg>
