<svg width="117" height="38" viewBox="0 0 117 38" fill="none" xmlns="http://www.w3.org/2000/svg">
<path d="M50.7005 37.452H41.2227L47.1508 0.666992H56.6281L50.7005 37.452Z" fill="#0C47F2"/>
<path d="M85.0598 1.56608C83.1903 0.821791 80.2252 0 76.5589 0C67.1993 0 60.6083 5.00876 60.5678 12.1698C60.4901 17.4532 65.2868 20.3877 68.8743 22.1493C72.5412 23.9495 73.7877 25.1244 73.7877 26.729C73.7503 29.1933 70.8246 30.3293 68.0959 30.3293C64.3119 30.3293 62.2844 29.7436 59.2032 28.3726L57.9552 27.7848L56.6289 36.0423C58.8518 37.0586 62.9473 37.9605 67.1993 38C77.1441 38 83.6184 33.0688 83.6951 25.4375C83.733 21.2501 81.2001 18.0414 75.7395 15.4195C72.4246 13.7364 70.3945 12.6015 70.3945 10.8794C70.4333 9.3138 72.1115 7.71027 75.8535 7.71027C78.9347 7.63173 81.1986 8.37498 82.9136 9.11875L83.7708 9.50936L85.0598 1.56608Z" fill="#0C47F2"/>
<path d="M97.6559 24.4204C98.4365 22.3071 101.44 14.1282 101.44 14.1282C101.401 14.2068 102.219 11.976 102.687 10.6065L103.349 13.7761C103.349 13.7761 105.144 22.5812 105.534 24.4204C104.053 24.4204 99.528 24.4204 97.6559 24.4204ZM109.355 0.666992H102.024C99.7633 0.666992 98.0457 1.33171 97.0703 3.71906L82.9922 37.4515H92.937C92.937 37.4515 94.5742 32.9113 94.9261 31.9335C96.0171 31.9335 105.691 31.9335 107.095 31.9335C107.367 33.225 108.226 37.4515 108.226 37.4515H117.001L109.355 0.666992Z" fill="#0C47F2"/>
<path d="M33.3062 0.666992L24.0242 25.7508L23.01 20.6635C21.2939 14.7935 15.9121 8.41575 9.90625 5.24457L18.4081 37.413H28.4307L43.3282 0.666992H33.3062Z" fill="#0C47F2"/>
<path d="M15.4049 0.666992H0.156002L0 1.41024C11.8951 4.46283 19.773 11.821 23.0096 20.6651L19.6947 3.75911C19.149 1.40972 17.4718 0.74449 15.4049 0.666992Z" fill="#FAA61A"/>
</svg>
